<svg width="45" height="36" viewBox="0 0 45 36" fill="none" xmlns="http://www.w3.org/2000/svg">
<path d="M10.7136 14.2454C13.3161 14.2454 15.4329 11.0563 15.4329 7.13615C15.4329 3.21695 13.3161 0.027832 10.7136 0.027832C8.11099 0.027832 5.99371 3.21695 5.99371 7.13615C5.99371 11.0563 8.11147 14.2454 10.7136 14.2454Z" fill="#C271FF"/>
<path d="M33.1708 14.2454C35.7734 14.2454 37.8907 11.0563 37.8907 7.13615C37.8907 3.21695 35.7734 0.027832 33.1708 0.027832C30.5688 0.027832 28.452 3.21695 28.452 7.13615C28.452 11.0563 30.5692 14.2454 33.1708 14.2454Z" fill="#C271FF"/>
<path d="M42.8613 19.9343C42.5623 19.6785 42.1502 19.6493 41.834 19.867C36.7572 23.3359 29.8699 25.7484 22.4397 26.6608C15.0113 27.5728 7.74442 26.8982 1.97891 24.7611C1.61913 24.6278 1.22526 24.7545 0.998788 25.0749C0.771056 25.3959 0.759847 25.8422 0.97062 26.1858C4.09772 31.2912 13.2358 34.0023 23.1915 32.7799C33.1511 31.557 41.3622 26.7143 43.1587 21.0048C43.2793 20.621 43.1595 20.1903 42.8613 19.9343Z" fill="#C271FF"/>
</svg>
